<svg width="156" height="118" viewBox="0 0 156 118" fill="none" xmlns="http://www.w3.org/2000/svg">
<g filter="url(#filter0_f_12_19)">
<path d="M143.073 10.9908C143.073 10.9908 143.072 10.9933 143.069 10.9985C143.071 10.9933 143.073 10.9908 143.073 10.9908ZM126.601 14.4551C132.819 13.6262 137.58 13.0488 140.857 13.0029C140.424 13.3015 139.927 13.6187 139.36 13.9516C136.115 15.8564 131.21 17.9165 124.918 19.8145C112.373 23.5985 94.9008 26.5646 75.5503 26.5646C56.2033 26.5646 39.9973 23.5996 28.7419 19.8492C23.0936 17.967 18.8374 15.9352 16.0816 14.0818C15.5147 13.7006 15.0339 13.3419 14.6305 13.0104C17.412 13.0918 21.4496 13.6456 26.8947 14.4475C27.4526 14.5296 28.0225 14.6139 28.604 14.6999C40.1971 16.4145 56.445 18.8174 75.5503 18.8174C94.1677 18.8174 111.137 16.5344 123.774 14.8344C124.742 14.7041 125.685 14.5772 126.601 14.4551Z" stroke="#FF0000" stroke-opacity="0.6" stroke-width="8"/>
<path d="M52.4213 69.7912C52.4213 80.3543 51.2079 89.7696 49.3309 96.4181C48.3846 99.7699 47.332 102.192 46.3364 103.684C45.8904 104.352 45.5582 104.691 45.3563 104.859C45.1545 104.691 44.8223 104.352 44.3763 103.684C43.3806 102.192 42.328 99.7699 41.3818 96.4181C39.5048 89.7696 38.2914 80.3543 38.2914 69.7912C38.2914 59.2282 39.5048 49.8128 41.3818 43.1644C42.328 39.8126 43.3806 37.3906 44.3763 35.8989C44.8223 35.2308 45.1545 34.8911 45.3563 34.7232C45.5582 34.8911 45.8904 35.2308 46.3364 35.8989C47.332 37.3906 48.3846 39.8126 49.3309 43.1644C51.2079 49.8128 52.4213 59.2282 52.4213 69.7912ZM45.5832 34.569C45.5832 34.569 45.5826 34.5693 45.5813 34.5698L45.5832 34.569ZM45.1315 34.5698C45.1301 34.5693 45.1294 34.569 45.1294 34.569C45.1294 34.569 45.1301 34.5693 45.1315 34.5698Z" stroke="#FF0000" stroke-opacity="0.6" stroke-width="8"/>
<path d="M106.165 69.7912C106.165 80.3543 104.952 89.7696 103.075 96.4181C102.129 99.7699 101.076 102.192 100.081 103.684C99.6346 104.352 99.3023 104.691 99.1005 104.859C98.8987 104.691 98.5664 104.352 98.1205 103.684C97.1248 102.192 96.0722 99.7699 95.1259 96.4181C93.2489 89.7696 92.0355 80.3543 92.0355 69.7912C92.0355 59.2282 93.2489 49.8128 95.1259 43.1644C96.0722 39.8126 97.1248 37.3906 98.1205 35.8989C98.5664 35.2308 98.8987 34.8911 99.1005 34.7232C99.3023 34.8911 99.6346 35.2308 100.081 35.8989C101.076 37.3906 102.129 39.8126 103.075 43.1644C104.952 49.8128 106.165 59.2282 106.165 69.7912ZM99.3274 34.569C99.3274 34.569 99.3267 34.5693 99.3254 34.5698L99.3274 34.569ZM98.8757 34.5698C98.8743 34.5693 98.8736 34.569 98.8736 34.569C98.8736 34.569 98.8743 34.5693 98.8757 34.5698Z" stroke="#FF0000" stroke-opacity="0.6" stroke-width="8"/>
</g>
<g filter="url(#filter1_d_12_19)">
<path d="M138.304 15.3568V15.7387L138.486 16.074C138.874 16.7856 138.859 17.3264 138.62 17.844C138.337 18.4543 137.66 19.1958 136.376 20.0009C133.813 21.6077 129.458 23.0855 123.586 24.3253C111.904 26.7917 94.8289 28.1969 75.785 28.1969C56.7674 28.1969 40.1971 26.3418 29.1657 23.6551C23.6139 22.3029 19.6215 20.7762 17.4104 19.2673C16.2912 18.5034 15.8318 17.8802 15.6966 17.4763C15.609 17.2148 15.5931 16.8837 16.0651 16.3346L14.9277 15.3567L16.0651 16.3346C17.1989 15.0158 18.921 14.2416 21.7271 13.9392C24.5607 13.6339 28.264 13.8333 33.1238 14.2652C34.7898 14.4132 36.5798 14.5873 38.5 14.7741C47.7092 15.6698 59.9124 16.8568 75.785 16.8568C91.3652 16.8568 104.911 15.7264 115.442 14.8477C117.869 14.6451 120.136 14.456 122.231 14.2971C127.869 13.8694 132.154 13.6709 135.014 13.9736C136.458 14.1264 137.353 14.3916 137.851 14.6884C138.244 14.9231 138.304 15.106 138.304 15.3568Z" stroke="#FF0000" stroke-opacity="0.85" stroke-width="3"/>
<path d="M46.1928 29.3633L46.3545 29.3798L46.5161 29.3612C48.6213 29.1195 50.0347 29.5031 51.0781 30.3352C52.1676 31.2039 53.0877 32.745 53.7903 35.2971C55.2076 40.4447 55.5148 48.7984 55.5148 61.082C55.5148 73.2253 54.3273 84.1702 52.4315 92.0367C51.4807 95.9817 50.3713 99.069 49.1949 101.134C47.952 103.315 46.9333 103.856 46.345 103.856C45.7567 103.856 44.7381 103.315 43.4952 101.134C42.3187 99.069 41.2093 95.9817 40.2586 92.0367C38.3628 84.1702 37.1752 73.2253 37.1752 61.082C37.1752 54.9594 37.1755 49.7914 37.3409 45.4817C37.5067 41.1597 37.8364 37.7962 38.4649 35.2597C39.0951 32.7165 39.9773 31.2066 41.0901 30.3521C42.1765 29.5178 43.7405 29.113 46.1928 29.3633Z" stroke="#FF0000" stroke-opacity="0.85" stroke-width="3"/>
<path d="M98.5531 29.994L98.7148 30.0105L98.8764 29.9919C100.982 29.7503 102.395 30.1338 103.438 30.9659C104.528 31.8347 105.448 33.3757 106.151 35.9278C107.568 41.0754 107.875 49.4292 107.875 61.7127C107.875 73.8561 106.688 84.8009 104.792 92.6674C103.841 96.6125 102.732 99.6998 101.555 101.764C100.312 103.946 99.2936 104.486 98.7053 104.486C98.117 104.486 97.0983 103.946 95.8554 101.764C94.679 99.6998 93.5696 96.6125 92.6189 92.6674C90.7231 84.8009 89.5355 73.8561 89.5355 61.7127C89.5355 55.5901 89.5358 50.4222 89.7011 46.1124C89.867 41.7904 90.1967 38.4269 90.8252 35.8904C91.4554 33.3472 92.3376 31.8374 93.4504 30.9828C94.5368 30.1486 96.1008 29.7438 98.5531 29.994Z" stroke="#FF0000" stroke-opacity="0.85" stroke-width="3"/>
</g>
<defs>
<filter id="filter0_f_12_19" x="0" y="0" width="156" height="117.984" filterUnits="userSpaceOnUse" color-interpolation-filters="sRGB">
<feFlood flood-opacity="0" result="BackgroundImageFix"/>
<feBlend mode="normal" in="SourceGraphic" in2="BackgroundImageFix" result="shape"/>
<feGaussianBlur stdDeviation="4.5" result="effect1_foregroundBlur_12_19"/>
</filter>
<filter id="filter1_d_12_19" x="14.1477" y="12.2922" width="135.143" height="102.694" filterUnits="userSpaceOnUse" color-interpolation-filters="sRGB">
<feFlood flood-opacity="0" result="BackgroundImageFix"/>
<feColorMatrix in="SourceAlpha" type="matrix" values="0 0 0 0 0 0 0 0 0 0 0 0 0 0 0 0 0 0 127 0" result="hardAlpha"/>
<feOffset dx="5" dy="5"/>
<feGaussianBlur stdDeviation="2"/>
<feColorMatrix type="matrix" values="0 0 0 0 0 0 0 0 0 0 0 0 0 0 0 0 0 0 0.25 0"/>
<feBlend mode="normal" in2="BackgroundImageFix" result="effect1_dropShadow_12_19"/>
<feBlend mode="normal" in="SourceGraphic" in2="effect1_dropShadow_12_19" result="shape"/>
</filter>
</defs>
</svg>
